<svg width="16" height="16" viewBox="0 0 16 16" fill="none" xmlns="http://www.w3.org/2000/svg">
<path d="M4.50172 5.77459C4.19384 5.4975 3.71962 5.52246 3.44253 5.83034C3.16544 6.13822 3.19039 6.61244 3.49828 6.88953L4.50172 5.77459ZM8 9.93206L7.49828 10.4895C7.78351 10.7462 8.2165 10.7462 8.50172 10.4895L8 9.93206ZM12.5017 6.88953C12.8096 6.61244 12.8346 6.13822 12.5575 5.83034C12.2804 5.52246 11.8062 5.4975 11.4983 5.77459L12.5017 6.88953ZM3.49828 6.88953L7.49828 10.4895L8.50172 9.37459L4.50172 5.77459L3.49828 6.88953ZM8.50172 10.4895L12.5017 6.88953L11.4983 5.77459L7.49828 9.37459L8.50172 10.4895Z" fill="currentColor"/>
</svg>
